#N canvas 734 245 503 425 10;
#X obj 52 20 inlet;
#X text 93 19 incoming data;
#X msg 275 192 0;
#X msg 244 192 1;
#N canvas 483 89 450 462 list-fit 0;
#N canvas 1 57 450 300 drip 0;
#X obj 170 35 inlet;
#X obj 170 115 list split 1;
#X obj 302 33 inlet;
#X obj 186 88 list;
#X msg 178 62 bang;
#X obj 170 155 outlet;
#X obj 243 153 outlet;
#X text 288 153 bangs empty list;
#X connect 0 0 4 0;
#X connect 1 0 5 0;
#X connect 1 1 3 1;
#X connect 1 2 6 0;
#X connect 2 0 3 1;
#X connect 3 0 1 0;
#X connect 4 0 3 0;
#X restore 83 149 pd drip;
#X obj 215 33 list;
#X obj 83 305 moses;
#X obj 102 203 f;
#X obj 83 256 +;
#X obj 83 281 * 0.5;
#X obj 83 98 t b b f;
#X obj 83 123 until;
#X obj 110 353 f;
#X obj 110 329 t b b;
#X obj 98 227 t f f;
#X obj 141 228 f;
#X obj 83 175 t f f b f;
#X obj 110 377 outlet;
#X obj 243 113 list split 1;
#X obj 215 57 t a a;
#X obj 83 15 inlet;
#X obj 236 8 inlet;
#X connect 0 0 12 0;
#X connect 0 1 11 0;
#X connect 0 1 7 1;
#X connect 1 0 15 0;
#X connect 2 1 9 0;
#X connect 3 0 10 0;
#X connect 4 0 5 0;
#X connect 5 0 2 0;
#X connect 6 0 7 0;
#X connect 6 1 1 0;
#X connect 6 2 2 1;
#X connect 7 0 0 0;
#X connect 8 0 13 0;
#X connect 9 0 8 0;
#X connect 9 1 7 1;
#X connect 10 0 4 1;
#X connect 10 1 8 1;
#X connect 11 0 13 0;
#X connect 12 0 4 0;
#X connect 12 1 3 1;
#X connect 12 2 3 0;
#X connect 12 3 11 1;
#X connect 14 0 3 0;
#X connect 15 0 0 1;
#X connect 15 1 14 0;
#X connect 16 0 6 0;
#X connect 17 0 1 1;
#X restore 77 251 pd list-fit;
#X obj 44 151 t f f;
#X msg 137 195 0;
#X msg 107 195 1;
#X obj 77 224 spigot 1;
#X obj 215 221 spigot 0;
#N canvas 545 109 637 659 array-fit 0;
#X obj 49 11 inlet;
#X obj 282 52 inlet;
#X obj 109 474 tabread;
#X msg 264 189 set \$1;
#X obj 326 84 symbol;
#X obj 325 205 expr size("$s1");
#X obj 94 402 until;
#X obj 98 656 moses;
#X obj 98 607 +;
#X obj 98 632 * 0.5;
#X obj 87 439 int;
#X obj 223 442 + 1;
#X obj 112 376 f 1;
#X obj 134 711 f;
#X obj 64 310 t b b b b f;
#X obj 231 515 tabread;
#X msg 231 489 set \$1 \, 0;
#X text 283 517 first value;
#X obj 285 421 tabread;
#X obj 278 367 pack symbol 1;
#X obj 50 64 moses;
#X obj 233 550 s first-\$0;
#X obj 110 15 r first-\$0;
#X obj 20 136 s \$0-arrayfit;
#X obj 207 703 r \$0-arrayfit;
#X obj 89 194 moses;
#X obj 390 505 s last-\$0;
#X obj 135 141 r last-\$0;
#X obj 35 107 f;
#X msg 37 87 bang;
#X obj 98 43 t f f;
#X obj 96 266 s \$0-arrayfit;
#X obj 111 237 f;
#X msg 113 217 bang;
#X obj 466 417 tabread;
#X obj 459 363 pack symbol 1;
#X text 518 419 last value;
#X obj 513 338 - 1;
#X obj 323 257 t f f f;
#X obj 332 342 - 2;
#X msg 285 395 set \$1 \, \$2;
#X msg 466 391 set \$1 \, \$2;
#X text 337 423 penult. value;
#X obj 344 154 t a a a a a a;
#X obj 394 454 +;
#X obj 390 480 * 0.5;
#X obj 267 287 - 2;
#X obj 324 232 max 2;
#X obj 158 496 tabread;
#X obj 123 442 t f f f;
#X obj 160 475 + 1;
#X msg 211 190 set \$1;
#X msg 167 409 0;
#X obj 150 522 t f f;
#X msg 144 656 bang;
#X msg 127 683 bang;
#X obj 206 728 outlet;
#X connect 0 0 20 0;
#X connect 1 0 4 0;
#X connect 2 0 8 0;
#X connect 3 0 2 0;
#X connect 4 0 43 0;
#X connect 5 0 47 0;
#X connect 6 0 10 0;
#X connect 7 0 55 0;
#X connect 7 1 54 0;
#X connect 8 0 9 0;
#X connect 9 0 7 0;
#X connect 10 0 49 0;
#X connect 11 0 10 1;
#X connect 12 0 6 0;
#X connect 13 0 56 0;
#X connect 14 1 12 0;
#X connect 14 2 52 0;
#X connect 14 4 7 1;
#X connect 15 0 21 0;
#X connect 16 0 15 0;
#X connect 18 0 44 0;
#X connect 19 0 40 0;
#X connect 20 0 29 0;
#X connect 20 1 25 0;
#X connect 22 0 30 0;
#X connect 24 0 56 0;
#X connect 25 0 14 0;
#X connect 25 1 33 0;
#X connect 27 0 25 1;
#X connect 28 0 23 0;
#X connect 29 0 28 0;
#X connect 30 0 20 1;
#X connect 30 1 28 1;
#X connect 32 0 31 0;
#X connect 33 0 32 0;
#X connect 34 0 44 1;
#X connect 34 0 32 1;
#X connect 35 0 41 0;
#X connect 37 0 35 1;
#X connect 38 0 46 0;
#X connect 38 1 39 0;
#X connect 38 2 37 0;
#X connect 39 0 19 1;
#X connect 40 0 18 0;
#X connect 41 0 34 0;
#X connect 43 0 51 0;
#X connect 43 1 3 0;
#X connect 43 2 19 0;
#X connect 43 3 16 0;
#X connect 43 4 35 0;
#X connect 43 5 5 0;
#X connect 44 0 45 0;
#X connect 45 0 26 0;
#X connect 46 0 12 1;
#X connect 47 0 38 0;
#X connect 48 0 53 0;
#X connect 49 0 2 0;
#X connect 49 1 50 0;
#X connect 49 2 11 0;
#X connect 50 0 48 0;
#X connect 51 0 48 0;
#X connect 52 0 10 1;
#X connect 53 0 8 1;
#X connect 53 1 13 1;
#X connect 54 0 6 1;
#X connect 55 0 13 0;
#X restore 215 247 pd array-fit;
#X obj 125 316 outlet;
#X obj 128 68 route set;
#X obj 171 105 route list;
#X connect 0 0 12 0;
#X connect 2 0 9 1;
#X connect 3 0 9 1;
#X connect 4 0 11 0;
#X connect 5 0 8 0;
#X connect 5 1 9 0;
#X connect 6 0 8 1;
#X connect 7 0 8 1;
#X connect 8 0 4 0;
#X connect 9 0 10 0;
#X connect 10 0 11 0;
#X connect 12 0 13 0;
#X connect 12 1 5 0;
#X connect 13 0 4 1;
#X connect 13 0 7 0;
#X connect 13 0 2 0;
#X connect 13 1 10 1;
#X connect 13 1 3 0;
#X connect 13 1 6 0;
